name Walk7.mot
datacolumns 19
datarows 27
range 1.84500000 1.97500000
endheader

                time	   L_ground_force_vx	   L_ground_force_vy	   L_ground_force_vz	   L_ground_force_px	   L_ground_force_py	   L_ground_force_pz	   R_ground_force_vx	   R_ground_force_vy	   R_ground_force_vz	   R_ground_force_px	   R_ground_force_py	   R_ground_force_pz	   L_ground_torque_x	   L_ground_torque_y	   L_ground_torque_z	   R_ground_torque_x	   R_ground_torque_y	   R_ground_torque_z	
          1.84500000	         -0.00000001	         -0.00000002	          0.00000000	          0.00000000	          0.00000000	          0.00000000	         -1.22329954	         -5.70636761	         -0.25603666	         -0.00234506	          0.00000000	         -0.00033360	          0.00000000	         -0.00000000	          0.00000000	          0.00000000	          0.27662499	          0.00000000	
          1.85000000	         -0.00000001	         -0.00000001	          0.00000000	          0.00000000	          0.00000000	          0.00000000	         -1.10821171	         -5.16281267	         -0.27411172	         -0.01109350	          0.00000000	         -0.00153697	          0.00000000	         -0.00000000	          0.00000000	          0.00000000	          0.25421259	          0.00000000	
          1.85500000	         -0.00000000	         -0.00000001	          0.00000000	          0.00000000	          0.00000000	          0.00000000	         -0.94676196	         -4.40592536	         -0.26402398	         -0.01582634	          0.00000000	         -0.00218711	          0.00000000	         -0.00000000	          0.00000000	          0.00000000	          0.21973480	          0.00000000	
          1.86000000	         -0.00000000	         -0.00000001	          0.00000000	          0.00000000	          0.00000000	          0.00000000	         -0.76834994	         -3.57209277	         -0.23667381	         -0.01760975	          0.00000000	         -0.00243106	          0.00000000	         -0.00000000	          0.00000000	          0.00000000	          0.18024650	          0.00000000	
          1.86500000	         -0.00000000	         -0.00000000	          0.00000000	          0.00000000	          0.00000000	          0.00000000	         -0.59317058	         -2.75486274	         -0.20041664	         -0.01736070	          0.00000000	         -0.00239524	          0.00000000	         -0.00000000	          0.00000000	          0.00000000	          0.14066810	          0.00000000	
          1.87000000	         -0.00000000	         -0.00000000	          0.00000000	          0.00000000	          0.00000000	          0.00000000	         -0.43391883	         -2.01291261	         -0.16131508	         -0.01582796	          0.00000000	         -0.00218283	          0.00000000	         -0.00000000	          0.00000000	          0.00000000	          0.10416209	          0.00000000	
          1.87500000	         -0.00000000	          0.00000000	          0.00000000	          0.00000000	          0.00000000	          0.00000000	         -0.29747603	         -1.37791732	         -0.12348194	         -0.01359325	          0.00000000	         -0.00187398	          0.00000000	         -0.00000000	          0.00000000	          0.00000000	          0.07251353	          0.00000000	
          1.88000000	          0.00000000	          0.00000000	          0.00000000	          0.00000000	          0.00000000	          0.00000000	         -0.18645115	         -0.86173055	         -0.08945435	         -0.01108511	          0.00000000	         -0.00152771	          0.00000000	         -0.00000000	          0.00000000	          0.00000000	          0.04648298	          0.00000000	
          1.88500000	          0.00000000	          0.00000000	         -0.00000000	          0.00000000	          0.00000000	          0.00000000	         -0.10050702	         -0.46255750	         -0.06055836	         -0.00859999	          0.00000000	         -0.00118483	          0.00000000	          0.00000000	          0.00000000	          0.00000000	          0.02611385	          0.00000000	
          1.89000000	          0.00000000	          0.00000000	         -0.00000000	          0.00000000	          0.00000000	          0.00000000	         -0.03744382	         -0.16999285	         -0.03723848	         -0.00632618	          0.00000000	         -0.00087124	          0.00000000	          0.00000000	          0.00000000	          0.00000000	          0.01098623	          0.00000000	
          1.89500000	          0.00000000	          0.00000000	         -0.00000000	         -0.00000000	          0.00000000	         -0.00000000	          0.00595874	          0.03106757	         -0.01933879	         -0.00436770	          0.00000000	         -0.00060124	          0.00000000	          0.00000000	          0.00000000	          0.00000000	          0.00041631	          0.00000000	
          1.90000000	          0.00000000	          0.00000000	         -0.00000000	         -0.00000000	          0.00000000	         -0.00000000	          0.03332070	          0.15754665	         -0.00633059	         -0.00276633	          0.00000000	         -0.00038054	          0.00000000	          0.00000000	          0.00000000	          0.00000000	         -0.00639491	          0.00000000	
          1.90500000	          0.00000000	          0.00000000	         -0.00000000	         -0.00000000	          0.00000000	         -0.00000000	          0.04823213	          0.22619520	          0.00251198	         -0.00152062	          0.00000000	         -0.00020892	          0.00000000	          0.00000000	          0.00000000	          0.00000000	         -0.01025705	          0.00000000	
          1.91000000	          0.00000000	          0.00000000	         -0.00000000	         -0.00000000	          0.00000000	         -0.00000000	          0.05397996	          0.25232888	          0.00798389	         -0.00060151	          0.00000000	         -0.00008233	          0.00000000	          0.00000000	          0.00000000	          0.00000000	         -0.01192255	          0.00000000	
          1.91500000	          0.00000000	          0.00000000	         -0.00000000	         -0.00000000	          0.00000000	         -0.00000000	          0.05339677	          0.24913174	          0.01086148	          0.00003547	          0.00000000	          0.00000535	          0.00000000	          0.00000000	          0.00000000	          0.00000000	         -0.01204768	          0.00000000	
          1.92000000	          0.00000000	          0.00000000	         -0.00000000	         -0.00000000	          0.00000000	         -0.00000000	          0.04879975	          0.22737817	          0.01184782	          0.00044115	          0.00000000	          0.00006116	          0.00000000	          0.00000000	          0.00000000	          0.00000000	         -0.01117510	          0.00000000	
          1.92500000	          0.00000000	          0.00000000	         -0.00000000	         -0.00000000	          0.00000000	         -0.00000000	          0.04199229	          0.19544516	          0.01154332	          0.00066641	          0.00000000	          0.00009211	          0.00000000	          0.00000000	          0.00000000	          0.00000000	         -0.00973171	          0.00000000	
          1.93000000	          0.00000000	          0.00000000	         -0.00000000	         -0.00000000	          0.00000000	         -0.00000000	          0.03430572	          0.15950979	          0.01043511	          0.00075816	          0.00000000	          0.00010468	          0.00000000	          0.00000000	          0.00000000	          0.00000000	         -0.00803643	          0.00000000	
          1.93500000	          0.00000000	          0.00000000	         -0.00000000	         -0.00000000	          0.00000000	         -0.00000000	          0.02666330	          0.12384984	          0.00889915	          0.00075704	          0.00000000	          0.00010446	          0.00000000	          0.00000000	          0.00000000	          0.00000000	         -0.00631370	          0.00000000	
          1.94000000	          0.00000000	          0.00000000	         -0.00000000	         -0.00000000	          0.00000000	         -0.00000000	          0.01965363	          0.09118678	          0.00721035	          0.00069645	          0.00000000	          0.00009605	          0.00000000	          0.00000000	          0.00000000	          0.00000000	         -0.00470961	          0.00000000	
          1.94500000	          0.00000000	         -0.00000000	         -0.00000000	         -0.00000000	          0.00000000	         -0.00000000	          0.01360409	          0.06302882	          0.00555710	          0.00060251	          0.00000000	          0.00008307	          0.00000000	          0.00000000	          0.00000000	          0.00000000	         -0.00330846	          0.00000000	
          1.95000000	         -0.00000000	         -0.00000000	         -0.00000000	         -0.00000000	          0.00000000	         -0.00000000	          0.00864872	          0.03998685	          0.00405741	          0.00049462	          0.00000000	          0.00006817	          0.00000000	          0.00000000	          0.00000000	          0.00000000	         -0.00214828	          0.00000000	
          1.95500000	         -0.00000000	         -0.00000000	          0.00000000	         -0.00000000	          0.00000000	         -0.00000000	          0.00478693	          0.02204800	          0.00277479	          0.00038631	          0.00000000	          0.00005323	          0.00000000	          0.00000000	          0.00000000	          0.00000000	         -0.00123437	          0.00000000	
          1.96000000	         -0.00000000	         -0.00000000	          0.00000000	         -0.00000000	          0.00000000	         -0.00000000	          0.00193185	          0.00880044	          0.00173282	          0.00028630	          0.00000000	          0.00003943	          0.00000000	         -0.00000000	          0.00000000	          0.00000000	         -0.00055067	          0.00000000	
          1.96500000	         -0.00000000	         -0.00000000	          0.00000000	          0.00000000	          0.00000000	          0.00000000	         -0.00005184	         -0.00039098	          0.00092758	          0.00019953	          0.00000000	          0.00002747	          0.00000000	         -0.00000000	          0.00000000	          0.00000000	         -0.00006868	          0.00000000	
          1.97000000	         -0.00000000	         -0.00000000	          0.00000000	          0.00000000	          0.00000000	          0.00000000	         -0.00131985	         -0.00625433	          0.00033784	          0.00012810	          0.00000000	          0.00001762	          0.00000000	         -0.00000000	          0.00000000	          0.00000000	          0.00024584	          0.00000000	
          1.97500000	         -0.00000000	         -0.00000000	          0.00000000	          0.00000000	          0.00000000	          0.00000000	         -0.00202861	         -0.00951975	         -0.00006707	          0.00007216	          0.00000000	          0.00000992	          0.00000000	         -0.00000000	          0.00000000	          0.00000000	          0.00042810	          0.00000000	
